<svg data-v-1e2f81f1="" width="141" height="30" viewBox="0 0 141 30" fill="none" xmlns="http://www.w3.org/2000/svg"><path d="M17.0456 0.221393V3.87432C19.5814 4.48041 21.8171 5.97301 23.349 8.08271C24.881 10.1924 25.6084 12.7802 25.3999 15.3791C25.1914 17.978 24.0608 20.4168 22.2121 22.2553C20.3634 24.0938 17.9184 25.2109 15.3183 25.405V22.9198C17.3848 22.72 19.3056 21.7668 20.7144 20.2418C22.1232 18.7169 22.9216 16.7268 22.9573 14.651C22.9931 12.5751 22.2637 10.5587 20.9083 8.98613C19.5528 7.41353 17.6661 6.3947 15.6077 6.12386V10.0541C14.6875 9.82646 13.7194 9.88961 12.8366 10.2348C11.9538 10.5801 11.1997 11.1904 10.678 11.9819C10.1563 12.7733 9.89277 13.707 9.92357 14.6544C9.95438 15.6018 10.278 16.5164 10.85 17.2723L11.6594 16.4629C11.202 15.7979 10.992 14.9937 11.0657 14.1899C11.1395 13.3862 11.4923 12.6336 12.0631 12.0629C12.6338 11.4922 13.3864 11.1394 14.1902 11.0658C14.994 10.9921 15.7981 11.2023 16.4631 11.6597L17.2725 10.8498C16.9499 10.6051 16.5963 10.4043 16.2209 10.2525V8.37197C17.7031 8.78651 18.9851 9.72377 19.8297 11.0104C20.6744 12.2971 21.0245 13.8461 20.8154 15.3709C20.6062 16.8957 19.852 18.2933 18.6922 19.305C17.5323 20.3167 16.0453 20.8743 14.5062 20.8744V29.0114C14.7785 29.0114 15.0498 29.0037 15.3183 28.9889C22.9519 28.5675 29.0116 22.2447 29.0116 14.5059C29.0116 7.36116 23.8462 1.42258 17.0456 0.221393ZM19.0907 14.5059C19.0923 13.4529 18.73 12.4317 18.0651 11.6153L17.2599 12.4203C17.7635 13.0854 18.0093 13.9102 17.9521 14.7425C17.8948 15.5748 17.5383 16.3582 16.9484 16.9481C16.3585 17.538 15.5751 17.8945 14.7428 17.9518C13.9106 18.009 13.0857 17.7632 12.4206 17.2596L11.6158 18.0641C11.9704 18.3532 12.3665 18.5873 12.7907 18.7584V20.6397C11.3084 20.2252 10.0264 19.2879 9.18172 18.0012C8.33704 16.7146 7.98689 15.1656 8.19602 13.6407C8.40515 12.1158 9.15942 10.7182 10.3193 9.70649C11.4792 8.69474 12.9662 8.13725 14.5054 8.13714V3.57732H14.506V0C6.49427 0 0 6.49478 0 14.5059C0 21.6507 5.16539 27.5888 11.966 28.79V25.1376C9.43022 24.5314 7.19462 23.0388 5.66269 20.9291C4.13076 18.8193 3.40342 16.2315 3.61194 13.6326C3.82047 11.0337 4.95112 8.59496 6.79983 6.75649C8.64854 4.91802 11.0935 3.80093 13.6936 3.60685V6.09155C11.627 6.29126 9.7062 7.24446 8.29733 8.76945C6.88845 10.2944 6.09003 12.2846 6.05426 14.3604C6.0185 16.4363 6.74789 18.4528 8.1034 20.0254C9.45891 21.598 11.3457 22.6168 13.4042 22.8876V18.9568C14.0796 19.1236 14.7842 19.1345 15.4645 18.9888C16.1448 18.843 16.7831 18.5445 17.331 18.1156C17.8789 17.6868 18.322 17.139 18.6269 16.5136C18.9318 15.8882 19.0905 15.2017 19.0909 14.5059H19.0907Z" fill="white"></path> <path d="M16.6205 14.5048C16.6204 14.9231 16.4964 15.332 16.264 15.6797C16.0315 16.0275 15.7012 16.2985 15.3148 16.4585C14.9283 16.6186 14.5031 16.6604 14.0929 16.5788C13.6827 16.4971 13.3059 16.2957 13.0101 15.9999C12.7144 15.7041 12.513 15.3272 12.4315 14.917C12.3499 14.5067 12.3918 14.0815 12.5519 13.6951C12.7121 13.3087 12.9832 12.9784 13.331 12.7461C13.6788 12.5138 14.0877 12.3898 14.5059 12.3898C14.7836 12.3899 15.0586 12.4446 15.3152 12.5509C15.5718 12.6572 15.8049 12.813 16.0012 13.0094C16.1976 13.2058 16.3533 13.4389 16.4596 13.6955C16.5658 13.9521 16.6205 14.2271 16.6205 14.5048Z" fill="white"></path> <path d="M54.9416 24.4529V4.90233H50.069V12.512H39.9027V4.90233H35V24.4529H39.9027V16.7229H50.069V24.4529H54.9416Z" fill="white"></path> <path d="M70.104 8.36128V18.4073C68.931 19.2194 66.9158 20.4225 65.051 20.4225C63.3065 20.4225 62.1334 19.4299 62.1334 17.8358V8.36128H57.712V19.5502C57.712 22.7385 59.7272 24.7236 63.6073 24.7236C66.0436 24.7236 68.2994 23.5506 70.104 22.2271V24.4529H74.5255V8.36128H70.104Z" fill="white"></path> <path d="M76.9371 24.4529H81.3585V23.0092C82.5316 23.9115 84.246 24.6935 86.8928 24.6935C92.1565 24.6935 95.2845 21.6857 95.2845 16.392C95.2845 11.0984 92.1565 8.09058 86.8928 8.09058C84.2159 8.09058 82.5316 8.90268 81.3585 9.80501V4H76.9371V24.4529ZM81.3585 13.4745C82.2007 12.7526 83.5241 12.0608 85.5995 12.0608C88.878 12.0608 90.6526 13.5948 90.6526 16.392C90.6526 19.1893 88.878 20.7232 85.5995 20.7232C83.5241 20.7232 82.2007 20.0615 81.3585 19.3397V13.4745Z" fill="white"></path> <path d="M96.9553 24.4529H101.377V23.0092C102.55 23.9115 104.264 24.6935 106.911 24.6935C112.175 24.6935 115.303 21.6857 115.303 16.392C115.303 11.0984 112.175 8.09058 106.911 8.09058C104.234 8.09058 102.55 8.90268 101.377 9.80501V4H96.9553V24.4529ZM101.377 13.4745C102.219 12.7526 103.542 12.0608 105.618 12.0608C108.896 12.0608 110.671 13.5948 110.671 16.392C110.671 19.1893 108.896 20.7232 105.618 20.7232C103.542 20.7232 102.219 20.0615 101.377 19.3397V13.4745Z" fill="white"></path> <path d="M121.395 24.4529V4H116.973V24.4529H121.395Z" fill="white"></path> <path d="M139.414 20.6932C137.97 20.8135 135.654 20.9639 133.218 20.9639C130.3 20.9639 128.495 19.8811 127.954 17.8959H140.466C140.526 17.2342 140.617 16.6627 140.617 15.8807C140.617 10.7374 137.669 8.09058 131.924 8.09058C126.119 8.09058 123.051 10.8878 123.051 16.392C123.051 21.8963 126.48 24.6935 133.218 24.6935C135.894 24.6935 137.91 24.5732 139.414 24.4529V20.6932ZM132.255 11.8503C134.812 11.8503 136.225 13.0534 136.255 15.1589H127.834C128.134 12.9632 129.638 11.8503 132.255 11.8503Z" fill="white"></path></svg>